<svg width="80" height="51" viewBox="0 0 80 51" fill="none" xmlns="http://www.w3.org/2000/svg">
<g clip-path="url(#clip0)">
<path d="M14.4793 16.1166C14.4793 20.0739 11.2396 23.2808 7.24141 23.2808C3.2444 23.282 0 20.0751 0 16.1166C0 12.1592 3.2444 8.95117 7.24141 8.95117C11.2408 8.95117 14.4793 12.1604 14.4793 16.1166Z" fill="white"/>
<path d="M45.818 16.1166C45.818 20.0739 42.5783 23.2808 38.5777 23.2808C34.5784 23.2808 31.334 20.0739 31.334 16.1166C31.334 12.1592 34.5784 8.95117 38.5777 8.95117C42.5783 8.95117 45.818 12.1604 45.818 16.1166Z" fill="white"/>
<path d="M14.4793 34.0158C14.4793 37.9743 11.2396 41.18 7.24141 41.18C3.2444 41.18 0 37.9732 0 34.0158C0 30.0619 3.2444 26.8516 7.24141 26.8516C11.2408 26.8504 14.4793 30.0619 14.4793 34.0158Z" fill="white"/>
<path d="M30.1508 25.0677C30.1508 29.0251 26.9052 32.232 22.9094 32.232C18.9124 32.232 15.668 29.0251 15.668 25.0677C15.668 21.1092 18.9112 17.9023 22.9094 17.9023C26.9052 17.9023 30.1508 21.1092 30.1508 25.0677Z" fill="white"/>
<path d="M30.1508 7.1654C30.1508 11.1228 26.9052 14.3308 22.9094 14.3308C18.9124 14.3308 15.668 11.1239 15.668 7.1654C15.668 3.21035 18.9112 0 22.9082 0C26.9052 0 30.1508 3.21035 30.1508 7.1654Z" fill="white"/>
<path d="M30.1508 42.967C30.1508 46.922 26.9052 50.1324 22.9094 50.1324C18.9124 50.1324 15.668 46.922 15.668 42.967C15.668 39.0096 18.9112 35.8027 22.9094 35.8027C26.9052 35.8027 30.1508 39.0096 30.1508 42.967Z" fill="white"/>
<path d="M38.5557 41.1316C34.5563 41.1316 31.3154 37.9224 31.3154 33.965C31.3154 30.0065 34.5563 26.8008 38.5557 26.8008H68.8089C72.813 26.8008 76.0527 30.0065 76.0527 33.965C76.0527 37.9224 72.8118 41.1316 68.8089 41.1316H38.5557Z" fill="white"/>
<path d="M40.6661 32.4052C40.3686 31.8944 39.8947 31.5953 39.1492 31.5953C37.9039 31.5953 37.1901 32.5774 37.1901 33.9644C37.1901 35.3095 37.9156 36.3335 39.1609 36.3335C39.9053 36.3335 40.3463 36.0472 40.7849 35.384L42.1831 36.1298C41.6139 37.1864 40.6203 37.8171 39.1104 37.8171C36.9408 37.8171 35.4814 36.3218 35.4814 33.9644C35.4814 31.6907 37.0008 30.1152 39.1704 30.1152C40.7355 30.1152 41.6892 30.7971 42.2078 31.7675L40.6661 32.4052Z" fill="black"/>
<path d="M49.2431 32.4052C48.9456 31.8944 48.4717 31.5953 47.7238 31.5953C46.4796 31.5953 45.7706 32.5774 45.7706 33.9644C45.7706 35.3095 46.4926 36.3335 47.7391 36.3335C48.4858 36.3335 48.9244 36.0472 49.363 35.384L50.7612 36.1298C50.1932 37.1864 49.1984 37.8171 47.6885 37.8171C45.5189 37.8171 44.0596 36.3218 44.0596 33.9644C44.0596 31.6907 45.5765 30.1152 47.7473 30.1152C49.3148 30.1152 50.2638 30.7971 50.7871 31.7675L49.2431 32.4052Z" fill="black"/>
<path d="M57.1646 30.2168L53.5732 30.2296V37.701H55.236V35.9207L57.1646 35.9091C58.7521 35.9091 60.0409 34.6361 60.0409 33.0664C60.0421 31.4933 58.7521 30.2168 57.1646 30.2168ZM56.7577 34.4674H55.236V31.6736H56.7577C57.542 31.6736 58.1747 32.2857 58.1747 33.0664C58.1747 33.8414 57.542 34.4674 56.7577 34.4674Z" fill="black"/>
</g>
<defs>
<clipPath id="clip0">
<rect width="80" height="50.1333" fill="white"/>
</clipPath>
</defs>
</svg>